<svg width="40" height="20" viewBox="0 0 40 20" xmlns="http://www.w3.org/2000/svg">
    <defs>
        <clipPath id="4qga12h8ma">
            <path d="M428 0v926H0V0h428z"/>
        </clipPath>
        <clipPath id="s908m2x21b">
            <path d="M30.02 0c.352 0 .682.136.93.384l8.666 8.682c.249.248.385.58.384.934.001.353-.135.685-.383.933l-8.668 8.682a1.303 1.303 0 0 1-.928.385c-.352 0-.682-.135-.93-.383l-.786-.786a1.298 1.298 0 0 1-.384-.926c0-.352.136-.674.384-.921l5.113-5.105H1.297C.572 11.88 0 11.254 0 10.53V9.413C0 8.688.572 8.12 1.297 8.12H33.36l-5.057-5.076a1.333 1.333 0 0 1 0-1.872l.787-.788c.248-.248.577-.384.93-.384z"/>
        </clipPath>
    </defs>
    <g clip-path="url(#4qga12h8ma)" transform="translate(-37 -837)">
        <g clip-path="url(#s908m2x21b)" transform="matrix(-1 0 0 1 77 837)">
            <path fill="#FFF" d="M0 0h40v20H0V0z"/>
        </g>
    </g>
</svg>
