<svg width="24" height="24" viewBox="0 0 24 24" xmlns="http://www.w3.org/2000/svg">
    <defs>
        <clipPath id="mxmbpm5msa">
            <path d="M428 0v1125H0V0h428z"/>
        </clipPath>
        <clipPath id="gyesnsuvmb">
            <path d="M428 0v61c0 14.912-12.088 27-27 27H27C12.088 88 0 75.912 0 61V0h428z"/>
        </clipPath>
        <clipPath id="m7i33z1ovc">
            <path d="M.503.517c.67-.69 1.76-.69 2.43 0L8 5.73 13.066.517c.67-.69 1.761-.69 2.431 0 .67.69.67 1.812 0 2.502L9.216 9.483c-.67.69-1.761.69-2.432 0L.503 3.019a1.808 1.808 0 0 1 0-2.502z"/>
        </clipPath>
    </defs>
    <g clip-path="url(#mxmbpm5msa)" transform="translate(-382 -44)">
        <g clip-path="url(#gyesnsuvmb)">
            <g clip-path="url(#m7i33z1ovc)" transform="matrix(0 -1 1 0 389 64)">
                <path fill="#FFF" d="M0 0h16v10H0V0z"/>
            </g>
        </g>
    </g>
</svg>
