<svg width="16" height="16" viewBox="0 0 16 16" xmlns="http://www.w3.org/2000/svg">
    <defs>
        <clipPath id="qfvjkx3tea">
            <path d="M428 0v926H0V0h428z"/>
        </clipPath>
        <clipPath id="56lven88jb">
            <path d="M14.125 8.625c1.034 0 1.875.841 1.875 1.875v3.625A1.877 1.877 0 0 1 14.125 16H10.5a1.877 1.877 0 0 1-1.875-1.875V10.5c0-1.034.841-1.875 1.875-1.875zm-8.625 0c1.034 0 1.875.841 1.875 1.875v3.625A1.877 1.877 0 0 1 5.5 16H1.875A1.877 1.877 0 0 1 0 14.125V10.5c0-1.034.841-1.875 1.875-1.875zm8.625 1.25H10.5a.626.626 0 0 0-.625.625v3.625c0 .345.28.625.625.625h3.625c.345 0 .625-.28.625-.625V10.5a.626.626 0 0 0-.625-.625zm-8.625 0H1.875a.626.626 0 0 0-.625.625v3.625c0 .345.28.625.625.625H5.5c.345 0 .625-.28.625-.625V10.5a.626.626 0 0 0-.625-.625zM5.5 0c1.034 0 1.875.841 1.875 1.875V5.5A1.877 1.877 0 0 1 5.5 7.375H1.875A1.877 1.877 0 0 1 0 5.5V1.875C0 .841.841 0 1.875 0zm8.625 0C15.159 0 16 .841 16 1.875V5.5a1.877 1.877 0 0 1-1.875 1.875H10.5A1.877 1.877 0 0 1 8.625 5.5V1.875C8.625.841 9.466 0 10.5 0zM5.5 1.25H1.875a.626.626 0 0 0-.625.625V5.5c0 .345.28.625.625.625H5.5c.345 0 .625-.28.625-.625V1.875A.626.626 0 0 0 5.5 1.25zm8.625 0H10.5a.626.626 0 0 0-.625.625V5.5c0 .345.28.625.625.625h3.625c.345 0 .625-.28.625-.625V1.875a.626.626 0 0 0-.625-.625z"/>
        </clipPath>
    </defs>
    <g clip-path="url(#qfvjkx3tea)" transform="translate(-391 -671)">
        <g clip-path="url(#56lven88jb)" transform="translate(391 671)">
            <path fill="#DB9D4C" d="M0 0h16v16H0V0z"/>
        </g>
    </g>
</svg>
