<svg width="16" height="16" viewBox="0 0 16 16" xmlns="http://www.w3.org/2000/svg">
    <defs>
        <clipPath id="895oi59yua">
            <path d="M428 0v1201H0V0h428z"/>
        </clipPath>
        <clipPath id="km5rcchg2b">
            <path d="M11.191 11.191c.883 0 1.599.716 1.599 1.599h2.398a.8.8 0 1 1 0 1.599H12.79c0 .883-.716 1.599-1.599 1.599H9.593a1.599 1.599 0 0 1-1.6-1.6H.8a.8.8 0 0 1 0-1.598h7.195c0-.883.716-1.599 1.599-1.599zm0 1.599H9.593v1.599h1.598V12.79zM6.395 5.596c.883 0 1.599.715 1.599 1.598h7.194a.8.8 0 1 1 0 1.6H7.994c0 .882-.716 1.598-1.599 1.598H4.796a1.599 1.599 0 0 1-1.598-1.599H.799a.8.8 0 0 1 0-1.599h2.399c0-.883.715-1.598 1.598-1.598zm0 1.598H4.796v1.6h1.599v-1.6zM12.79 0c.883 0 1.599.716 1.599 1.599h.8a.8.8 0 1 1 0 1.599h-.8c0 .882-.716 1.598-1.599 1.598h-1.599a1.599 1.599 0 0 1-1.598-1.598H.799a.8.8 0 0 1 0-1.6h8.794C9.593.717 10.308 0 11.19 0zm0 1.599h-1.599v1.599h1.599v-1.6z"/>
        </clipPath>
    </defs>
    <g clip-path="url(#895oi59yua)" transform="translate(-37 -165)">
        <g clip-path="url(#km5rcchg2b)" transform="translate(37 165)">
            <path fill="#D6D6D6" d="M0 0h15.988v15.988H0V0z"/>
        </g>
    </g>
</svg>
