<svg width="24" height="24" viewBox="0 0 24 24" xmlns="http://www.w3.org/2000/svg">
    <defs>
        <clipPath id="rvvk0xyrqa">
            <path d="M428 0v926H0V0h428z"/>
        </clipPath>
        <clipPath id="0zikjh1bbb">
            <path d="M428 0v61c0 14.912-12.088 27-27 27H27C12.088 88 0 75.912 0 61V0h428z"/>
        </clipPath>
        <clipPath id="2ji2ikvkqc">
            <path d="M.503.517c.67-.69 1.76-.69 2.43 0L8 5.73 13.066.517c.67-.69 1.761-.69 2.431 0 .67.69.67 1.812 0 2.502L9.216 9.483c-.67.69-1.761.69-2.432 0L.503 3.019a1.808 1.808 0 0 1 0-2.502z"/>
        </clipPath>
    </defs>
    <g clip-path="url(#rvvk0xyrqa)" transform="translate(-382 -44)">
        <g clip-path="url(#0zikjh1bbb)">
            <g clip-path="url(#2ji2ikvkqc)" transform="matrix(0 -1 1 0 389 64)">
                <path fill="#FFF" d="M0 0h16v10H0V0z"/>
            </g>
        </g>
    </g>
</svg>
